# xmcd
#
# Track frame offsets: 
#        150
#        18721
#        36330
#        51164
#        68497
#        87036
#        105302
#        119402
#        136368
#        156566
#        172462
#        193776
#        209930
#        232471
#        244647
#
# Disc length: 3474 seconds
#
# Revision: 0
# Processed by: cddbd v1.5.2PL0 Copyright (c) Steve Scherf et al.
# Submitted via: ExactAudioCopy v0.99pb3
#
DISCID=e70d900f
DTITLE=John-Alex Mason - Town and Country
DYEAR=2007
DGENRE=Blues
TTITLE0=Shake 'Em On Down
TTITLE1=Steel Pony Blues
TTITLE2=Bury My Boots
TTITLE3=Terraplane Blues
TTITLE4=Boll Weevil
TTITLE5=Chef Menteur
TTITLE6=Strange Things
TTITLE7=Milk Cow Blues
TTITLE8=Locomotive
TTITLE9=What Are You Hungry For?
TTITLE10=Rabbit Song
TTITLE11=Jitterbug Swing
TTITLE12=Cypress Grove
TTITLE13=Shake Your Money Maker
TTITLE14=Shake 'Em On Down
EXTD=
EXTT0=
EXTT1=
EXTT2=
EXTT3=
EXTT4=
EXTT5=
EXTT6=
EXTT7=
EXTT8=
EXTT9=
EXTT10=
EXTT11=
EXTT12=
EXTT13=
EXTT14=
PLAYORDER=
